<svg class="animated" id="freepik_stories-drone" xmlns="http://www.w3.org/2000/svg" viewBox="0 0 500 500" version="1.1" xmlns:xlink="http://www.w3.org/1999/xlink" xmlns:svgjs="http://svgjs.com/svgjs"><style>svg#freepik_stories-drone:not(.animated) .animable {opacity: 0;}svg#freepik_stories-drone.animated #freepik--Device--inject-5 {animation: 1.5s Infinite  linear floating;animation-delay: 0s;}            @keyframes floating {                0% {                    opacity: 1;                    transform: translateY(0px);                }                50% {                    transform: translateY(-10px);                }                100% {                    opacity: 1;                    transform: translateY(0px);                }            }        </style><g id="freepik--background-complete--inject-5" class="animable" style="transform-origin: 249.982px 202.558px;"><path d="M263.45,112c4.77,0,123.93-.83,157.58-.83,2.36,0-.62-4.07-1.92-4.36-4.14-.9-8.45-.95-12.65-1.39a41.48,41.48,0,0,1-12.06-3c-3.31-1.4-6.62-3-10.21-3.57-6.93-1.09-13,2.67-19.52,4.33a14.74,14.74,0,0,1-11.82-1.62c-3-1.8-5.74-4-8.88-5.56A48.75,48.75,0,0,0,305,94.21a45,45,0,0,0-8.51,4.36c-3.18,2.08-5.92,4.75-9.1,6.81-7.06,4.56-15.79,3.08-23.48,5.69C263.51,111.22,263,112,263.45,112Z" style="fill: rgb(235, 235, 235); transform-origin: 342.593px 101.493px; --darkreader-inline-fill: #dbd8d4;" id="elj61qs7df50g" class="animable" data-darkreader-inline-fill=""></path><path d="M217.06,361.14c4.78,0,123.93-.83,157.59-.83,2.35,0-.62-4.07-1.92-4.36-4.14-.9-8.45-.95-12.66-1.39a41.24,41.24,0,0,1-12.06-3c-3.31-1.4-6.61-3-10.2-3.57-6.93-1.09-13,2.67-19.52,4.33a14.74,14.74,0,0,1-11.82-1.62c-3-1.8-5.74-4-8.88-5.56a48.75,48.75,0,0,0-38.94-1.78,45.34,45.34,0,0,0-8.52,4.36c-3.17,2.08-5.91,4.75-9.1,6.81-7.06,4.56-15.78,3.08-23.48,5.7C217.13,360.35,216.65,361.14,217.06,361.14Z" style="fill: rgb(235, 235, 235); transform-origin: 296.216px 350.639px; --darkreader-inline-fill: #dbd8d4;" id="el9t4u6av9aa" class="animable" data-darkreader-inline-fill=""></path><path d="M122.37,66c6.31,0,112.55.7,119.22.49.48,0,.74-.72.26-1-4.21-2.08-9-1.66-13.35-3.14-2.58-.86-4.16-2.55-5.94-4.48A12.41,12.41,0,0,0,217,54.25a11.71,11.71,0,0,0-6-.18c-2.16.51-4,1.74-6.08,2.52-5.11,1.93-10.07.1-13.71-3.68-3-3.11-6-6-10-7.72A13.33,13.33,0,0,0,170.53,45c-3.89,1.76-6.57,5.31-10.23,7.45C156,55,150.78,54.43,146,55.19s-8.47,4.8-12.67,7.13a8.93,8.93,0,0,1-4.58,1.41,26.36,26.36,0,0,1-2.79-.39c-1.45-.18-2.82-.14-3.79,1.07C121.91,64.7,122,66,122.37,66Z" style="fill: rgb(235, 235, 235); transform-origin: 182.063px 55.2528px; --darkreader-inline-fill: #dbd8d4;" id="eldww0au1ji1" class="animable" data-darkreader-inline-fill=""></path><path d="M50.27,244.22c6.31,0,112.54.7,119.22.49.48,0,.74-.72.26-1-4.21-2.08-9-1.66-13.36-3.13-2.57-.87-4.15-2.55-5.94-4.48a12.3,12.3,0,0,0-5.52-3.61,11.61,11.61,0,0,0-6-.19c-2.16.51-4,1.75-6.08,2.52-5.11,1.93-10.07.1-13.71-3.68-3-3.11-6-6.05-10.05-7.72a13.31,13.31,0,0,0-10.64-.15c-3.89,1.77-6.57,5.32-10.23,7.45-4.34,2.54-9.53,1.94-14.32,2.7s-8.47,4.8-12.67,7.13A9.06,9.06,0,0,1,56.63,242c-.94,0-1.86-.28-2.79-.4-1.45-.18-2.82-.13-3.8,1.07C49.81,243,49.86,244.22,50.27,244.22Z" style="fill: rgb(235, 235, 235); transform-origin: 109.954px 233.492px; --darkreader-inline-fill: #dbd8d4;" id="el6f67x4frfzi" class="animable" data-darkreader-inline-fill=""></path><path d="M37.58,90.61c4.61,0,82.17.51,87,.35a.38.38,0,0,0,.19-.7c-3.07-1.52-6.56-1.21-9.75-2.29a10.28,10.28,0,0,1-4.33-3.27,9,9,0,0,0-4-2.63,8.49,8.49,0,0,0-4.39-.14,38.24,38.24,0,0,0-4.45,1.84c-3.72,1.41-7.34.07-10-2.68-2.2-2.28-4.35-4.42-7.34-5.64a9.72,9.72,0,0,0-7.77-.11c-2.84,1.29-4.79,3.88-7.46,5.44-3.17,1.85-7,1.41-10.46,2s-6.18,3.51-9.25,5.2a6.57,6.57,0,0,1-3.35,1,19.84,19.84,0,0,1-2-.29,2.79,2.79,0,0,0-2.77.78C37.24,89.7,37.28,90.61,37.58,90.61Z" style="fill: rgb(235, 235, 235); transform-origin: 81.132px 82.7874px; --darkreader-inline-fill: #dbd8d4;" id="el9yv8kovd6ae" class="animable" data-darkreader-inline-fill=""></path><path d="M139.29,318.62c4.61,0,82.17.51,87.05.36.35,0,.53-.53.19-.7-3.08-1.52-6.56-1.22-9.76-2.29a10.51,10.51,0,0,1-4.33-3.27,9,9,0,0,0-4-2.64,8.6,8.6,0,0,0-4.39-.14,37.45,37.45,0,0,0-4.44,1.85c-3.73,1.4-7.35.07-10-2.69-2.19-2.27-4.35-4.42-7.33-5.64a9.72,9.72,0,0,0-7.77-.11c-2.85,1.29-4.8,3.88-7.47,5.44-3.17,1.85-7,1.42-10.46,2s-6.18,3.51-9.25,5.21a6.55,6.55,0,0,1-3.34,1,20,20,0,0,1-2-.29,2.77,2.77,0,0,0-2.77.79C139,317.71,139,318.62,139.29,318.62Z" style="fill: rgb(235, 235, 235); transform-origin: 182.887px 310.801px; --darkreader-inline-fill: #dbd8d4;" id="el1a4tiflca17" class="animable" data-darkreader-inline-fill=""></path><path d="M375.27,262.39c4.61,0,82.17.51,87,.36.35,0,.54-.53.19-.7-3.07-1.52-6.56-1.22-9.75-2.29a10.36,10.36,0,0,1-4.33-3.27,9,9,0,0,0-4-2.64,8.6,8.6,0,0,0-4.39-.14,38.3,38.3,0,0,0-4.45,1.85c-3.72,1.4-7.34.07-10-2.69-2.2-2.27-4.35-4.42-7.34-5.64a9.72,9.72,0,0,0-7.77-.11c-2.84,1.29-4.79,3.88-7.46,5.44-3.17,1.85-7,1.42-10.46,2s-6.18,3.51-9.25,5.21a6.56,6.56,0,0,1-3.35,1,19.81,19.81,0,0,1-2-.28,2.74,2.74,0,0,0-2.77.78C374.93,261.48,375,262.39,375.27,262.39Z" style="fill: rgb(235, 235, 235); transform-origin: 418.832px 254.571px; --darkreader-inline-fill: #dbd8d4;" id="el4cfeinvb9r2" class="animable" data-darkreader-inline-fill=""></path></g><g id="freepik--Floor--inject-5" class="animable" style="transform-origin: 250px 461.58px;"><polygon points="34.95 461.58 88.71 461.34 142.48 461.25 250 461.08 357.52 461.25 411.29 461.34 465.05 461.58 411.29 461.83 357.52 461.92 250 462.08 142.48 461.91 88.71 461.83 34.95 461.58" style="fill: rgb(38, 50, 56); transform-origin: 250px 461.58px; --darkreader-inline-fill: #cac6bf;" id="elir6hg03wu9k" class="animable" data-darkreader-inline-fill=""></polygon></g><g id="freepik--Mountains--inject-5" class="animable" style="transform-origin: 249.995px 426.153px;"><path d="M460.56,461.42S420,434.28,411.75,431.84c-6.31-1.85-24-17.33-36.85-28.15-1.55-1.31-7.47-.24-8.89-1.45-4.8-4.1-8.68-7.51-10.69-9.27-4.1-3.57-27.71-1.92-31.56,0-2,1-16,15.6-24.91,22.52-2.87,2.23-21.68,3.65-29.41,4.79-7.46,1.1-27.5,22.1-33.3,23.63-32,8.43-40,16-46.34,17.5H460.56Z" style="fill: rgb(255, 199, 39); transform-origin: 325.18px 426.143px; --darkreader-inline-fill: #ffcb35;" id="eleuntx40kq7g" class="animable" data-darkreader-inline-fill=""></path><g id="elusrhydwbon9"><path d="M460.56,461.42S420,434.28,411.75,431.84c-6.31-1.85-24-17.33-36.85-28.15-1.55-1.31-7.47-.24-8.89-1.45-4.8-4.1-8.68-7.51-10.69-9.27-4.1-3.57-27.71-1.92-31.56,0-2,1-16,15.6-24.91,22.52-2.87,2.23-21.68,3.65-29.41,4.79-7.46,1.1-27.5,22.1-33.3,23.63-32,8.43-40,16-46.34,17.5H460.56Z" style="fill: rgb(255, 255, 255); opacity: 0.4; transform-origin: 325.18px 426.143px; --darkreader-inline-fill: #e8e6e3;" class="animable" data-darkreader-inline-fill=""></path></g><g id="elz7099zbr13q"><path d="M460.56,461.41h0Z" style="opacity: 0.4; transform-origin: 460.56px 461.41px;" class="animable"></path></g><g id="elge2rzzfg6kf"><path d="M460.56,461.41h0Z" style="opacity: 0.2; transform-origin: 460.56px 461.41px;" class="animable"></path></g><g id="el9pghz065ax"><path d="M460.54,461.41H299.26c9.74-3.6,30.51-11.39,32.32-13.06,2.38-2.2,5.48-18.05,6.36-20.15s17.4-14.66,18.09-16.92-2-18.74-2.1-19.08h0l0,0,.18.07.2.09.19.09.17.09.18.11.07,0,.14.1.09.07.13.11a3.48,3.48,0,0,1,.3.26l.32.27.34.3.37.32c2.18,1.9,5.47,4.78,9.37,8.11a.81.81,0,0,0,.18.12l.19.1a1.45,1.45,0,0,0,.25.1l.22.07s.53,7.94.42,8.65-4.88,5.74-5.17,6.84.43,5.31,0,6.21c-.26.52-5,6-6.28,7.39-.35.37,3.42.13,3.53.13.47,0,4.93-4.91,5.78-5.26s1.57-6.95,2.17-7.45,6.4-6,7.16-6.56.47-8.89.47-8.89c2.41,2,5,4.22,7.63,6.46l2,1.68.67.56,1.83,1.55,2.51,2.09,1.25,1,1.25,1,1.23,1c1.63,1.33,3.24,2.62,4.79,3.83l1.15.9c2.94,2.26,5.63,4.22,7.9,5.66.38.23.73.45,1.08.65l.7.41.41.22q.6.33,1.14.57s-14.22,5.88-16.32,7.55-7.21,12.24-8.86,13.45-12.57,6.08-12.12,6.47,20.63-2,22.92-4.25,7.16-10.94,9.41-12.11c1.73-.9,9.93-4.82,14.39-6.68C438.89,446.64,459.74,461,460.54,461.41Z" style="opacity: 0.1; transform-origin: 379.9px 426.805px;" class="animable"></path></g><g id="el037nj8jigzr3"><path d="M306.75,434.8c-.62.27-12.18-1.48-12.87-1.6s-4.45-5.4-5.18-5.3-10.29-1.46-11.57-2.14-4.62-5.79-4.62-5.79h0l3.15-.47c7.14-.82,16.43-1.8,20.9-3.06.24,1.1,1.4,6.48,1.18,7.32s-2.14,3.13-1.57,3.82S307.38,434.53,306.75,434.8Z" style="opacity: 0.1; transform-origin: 289.643px 425.634px;" class="animable"></path></g><path d="M378,461.41s-92.82-11.22-104.59-12.68c-7.49-.94-42.12-16.27-65.76-25.09-1.82-.68-10.93-.07-12-.34C186.12,421,178.82,417,173,417c-6.38,0-55.25,25.26-60.34,27.39S80,454.19,71.48,455s-32,6.44-32,6.44Z" style="fill: rgb(255, 199, 39); transform-origin: 208.74px 439.22px; --darkreader-inline-fill: #ffcb35;" id="eltpceepu1eab" class="animable" data-darkreader-inline-fill=""></path><g id="elnjxxjwqlz4k"><path d="M378,461.41s-92.82-11.22-104.59-12.68c-7.49-.94-42.12-16.27-65.76-25.09-1.82-.68-10.93-.07-12-.34C186.12,421,178.82,417,173,417c-6.38,0-55.25,25.26-60.34,27.39S80,454.19,71.48,455s-32,6.44-32,6.44Z" style="fill: rgb(255, 255, 255); opacity: 0.2; transform-origin: 208.74px 439.22px; --darkreader-inline-fill: #e8e6e3;" class="animable" data-darkreader-inline-fill=""></path></g><g id="elkr1ncxhu22"><path d="M180.38,445.17c-1.18-.35-1.56-4.49-1.92-5.24s-17-7.29-17.17-8.23S173,417,173,417c-6.38,0-55.25,25.27-60.33,27.39-.33.13-.73.29-1.21.46l-.79.27c-1,.34-2.17.72-3.54,1.15l-1.22.37-1.95.58-1.38.41-2.18.62-1.51.43c-1.53.42-3.11.86-4.71,1.28-5.89,1.58-12,3.1-16.8,4l-1.26.25-1.18.21c-.58.1-1.12.19-1.62.26-.34.06-.65.1-1,.14l-.85.09c-.54,0-1.12.11-1.77.2l-1,.14-1.06.16-1.12.18-1.18.2-2.47.45-2.61.51-2,.4-.68.14-1.34.28-.67.14-1.34.29c-7.77,1.66-14.8,3.35-14.8,3.35H242.87C222.4,456.18,181.24,445.43,180.38,445.17Zm-46.52-1.24c-.67-.08-5.09-2.3-5.72-2.38s-2-1.82-1.62-1.91,2.38-.44,2.71-.47,2.12,1.08,2.45,1.08,6.48,0,7.07.16,5.3,3.24,5.11,3.52S134.52,444,133.86,443.93Z" style="opacity: 0.1; transform-origin: 141.15px 439.175px;" class="animable"></path></g></g><g id="freepik--Trees--inject-5" class="animable" style="transform-origin: 250px 428.995px;"><path d="M40.32,461.42H62.67l-2.62-11.54a14.69,14.69,0,0,1-7.14-2.23l6.93,1.29-3.2-14.1A13.06,13.06,0,0,1,53.8,433l2.62.83L56,432a13.37,13.37,0,0,1-3.94-2.61l3.67,1.44L51.5,412.14l-2.39,10.55,2.15-.54a15.33,15.33,0,0,1-2.32,1.29l-3.43,15.11,2.49-.62a16.83,16.83,0,0,1-2.68,1.45L43,449.84l4.85-1.21a17.53,17.53,0,0,1-5.1,2.31l-.41,1.82,7.46-1.86a17.76,17.76,0,0,1-7.67,2.8l-.6,2.6,2.49-.61a16.52,16.52,0,0,1-2.67,1.44Z" style="fill: rgb(69, 90, 100); transform-origin: 51.495px 436.78px; --darkreader-inline-fill: #b3aca2;" id="elk0kzfxb0bn" class="animable" data-darkreader-inline-fill=""></path><path d="M44.44,446.49c1.23.47,5.81,2.34,6.8,2.88v-.62l-3.32-1.94a37.77,37.77,0,0,1-3.57-2.13c-.06,0,0-.15,0-.12a29.77,29.77,0,0,1,3.49,1.94c1.13.66,2.24,1.34,3.35,2,0-1.59,0-3.19,0-4.78A38.19,38.19,0,0,1,46,441.09s0-.14.05-.11a37.58,37.58,0,0,1,5.17,2.55c0-.83,0-7.21.18-15.29-1.08-.55-2.2-1-3.28-1.58a.07.07,0,0,1,.05-.13c1.1.43,2.16.94,3.24,1.41.06-2.2.14-4.4.28-6.59a.06.06,0,1,1,.11,0c.15,4.08.14,12,.09,16.08,1.12-.9,2.32-1.7,3.47-2.57,0,0,.09.05,0,.08-1.19.91-2.31,1.92-3.51,2.82,0,.24,0,.47,0,.7,1.22-.56,2.45-1.08,3.69-1.61.09,0,.18.1.08.15-1.26.6-2.51,1.21-3.78,1.78,0,2-.21,9.34-.29,12.87,2.31-1.16,4.63-2.3,7-3.39.09-.05.17.08.08.13a72.29,72.29,0,0,1-7,3.53c-.06,2.94-.13,6.43-.16,9.37a.14.14,0,0,1-.28,0c0-3.75,0-8.05.06-11.79a70.41,70.41,0,0,1-6.89-2.8A.12.12,0,0,1,44.44,446.49Z" style="fill: rgb(55, 71, 79); transform-origin: 51.4944px 441.348px; --darkreader-inline-fill: #beb8b0;" id="elp998mer07qp" class="animable" data-darkreader-inline-fill=""></path><path d="M437.33,461.42h22.35l-2.62-11.54a14.69,14.69,0,0,1-7.14-2.23l6.93,1.29-3.2-14.1a13.06,13.06,0,0,1-2.84-1.81l2.62.83L453,432a13.63,13.63,0,0,1-3.94-2.61l3.68,1.44-4.23-18.67-2.39,10.55,2.14-.54a14.86,14.86,0,0,1-2.31,1.29l-3.43,15.11,2.49-.62a16.83,16.83,0,0,1-2.68,1.45L440,449.84l4.85-1.21a17.53,17.53,0,0,1-5.1,2.31l-.41,1.82,7.45-1.86a17.69,17.69,0,0,1-7.67,2.8l-.59,2.6,2.48-.61a16.52,16.52,0,0,1-2.67,1.44Z" style="fill: rgb(69, 90, 100); transform-origin: 448.505px 436.79px; --darkreader-inline-fill: #b3aca2;" id="elletsvbvc0l" class="animable" data-darkreader-inline-fill=""></path><path d="M441.44,446.49c1.24.47,5.82,2.34,6.81,2.88v-.62l-3.32-1.94a36.55,36.55,0,0,1-3.57-2.13c-.06,0,0-.15.05-.12a29.77,29.77,0,0,1,3.49,1.94c1.13.66,2.24,1.34,3.35,2,0-1.59,0-3.19,0-4.78a37.62,37.62,0,0,1-5.22-2.65c-.05,0,0-.14.05-.11a37.58,37.58,0,0,1,5.17,2.55c0-.83,0-7.21.18-15.29-1.08-.55-2.2-1-3.29-1.58a.07.07,0,0,1,.06-.13c1.1.43,2.16.94,3.24,1.41.06-2.2.14-4.4.28-6.59a.06.06,0,1,1,.11,0c.15,4.08.14,12,.09,16.08,1.12-.9,2.32-1.7,3.47-2.57,0,0,.08.05,0,.08-1.2.91-2.32,1.92-3.52,2.82v.7c1.21-.56,2.45-1.08,3.68-1.61.1,0,.19.1.09.15-1.26.6-2.51,1.21-3.78,1.78,0,2-.21,9.34-.29,12.87,2.3-1.16,4.62-2.3,7-3.39a.08.08,0,0,1,.08.13,72.29,72.29,0,0,1-7,3.53c-.07,2.94-.13,6.43-.16,9.37,0,.17-.28.17-.28,0,0-3.75.05-8.05.06-11.79a70.41,70.41,0,0,1-6.89-2.8C441.25,446.64,441.33,446.45,441.44,446.49Z" style="fill: rgb(55, 71, 79); transform-origin: 448.491px 441.322px; --darkreader-inline-fill: #beb8b0;" id="eldk8e4ftsy3j" class="animable" data-darkreader-inline-fill=""></path><path d="M190.81,461.42h22.34l-2.61-11.54a14.69,14.69,0,0,1-7.14-2.23l6.93,1.29-3.2-14.1a13.06,13.06,0,0,1-2.84-1.81l2.62.83-.43-1.88a13.63,13.63,0,0,1-3.94-2.61l3.68,1.44L202,412.14l-2.39,10.55,2.14-.54a14.86,14.86,0,0,1-2.31,1.29L196,438.55l2.48-.62a17,17,0,0,1-2.67,1.45l-2.37,10.46,4.85-1.21a17.69,17.69,0,0,1-5.1,2.31l-.41,1.82,7.45-1.86a17.69,17.69,0,0,1-7.67,2.8l-.59,2.6,2.48-.61a16.52,16.52,0,0,1-2.67,1.44Z" style="fill: rgb(69, 90, 100); transform-origin: 201.98px 436.78px; --darkreader-inline-fill: #b3aca2;" id="el4gqjj9zfgrj" class="animable" data-darkreader-inline-fill=""></path><path d="M194.92,446.49c1.24.47,5.82,2.34,6.81,2.88v-.62l-3.32-1.94a36.55,36.55,0,0,1-3.57-2.13c-.06,0,0-.15,0-.12a29.77,29.77,0,0,1,3.49,1.94c1.13.66,2.24,1.34,3.35,2,0-1.59,0-3.19,0-4.78a37.07,37.07,0,0,1-5.22-2.65c-.05,0,0-.14.05-.11a37.58,37.58,0,0,1,5.17,2.55c0-.83,0-7.21.18-15.29-1.08-.55-2.2-1-3.29-1.58a.07.07,0,0,1,.06-.13c1.1.43,2.16.94,3.24,1.41.06-2.2.14-4.4.28-6.59a.06.06,0,1,1,.11,0c.15,4.08.14,12,.09,16.08,1.12-.9,2.32-1.7,3.47-2.57,0,0,.08.05,0,.08-1.2.91-2.32,1.92-3.52,2.82,0,.24,0,.47,0,.7,1.22-.56,2.46-1.08,3.69-1.61.1,0,.19.1.09.15-1.26.6-2.51,1.21-3.78,1.78,0,2-.21,9.34-.29,12.87,2.3-1.16,4.62-2.3,7-3.39a.07.07,0,1,1,.07.13,71,71,0,0,1-7,3.53c-.07,2.94-.13,6.43-.17,9.37a.14.14,0,0,1-.27,0c0-3.75,0-8.05.05-11.79a71.26,71.26,0,0,1-6.88-2.8C194.73,446.64,194.8,446.45,194.92,446.49Z" style="fill: rgb(55, 71, 79); transform-origin: 201.947px 441.309px; --darkreader-inline-fill: #beb8b0;" id="el62dyw1it42g" class="animable" data-darkreader-inline-fill=""></path><path d="M101.61,461.42H124l-2.62-11.54a14.63,14.63,0,0,1-7.13-2.23l6.92,1.29-3.19-14.1a12.88,12.88,0,0,1-2.85-1.81l2.62.83-.42-1.88a13.37,13.37,0,0,1-3.94-2.61l3.67,1.44-4.23-18.67-2.39,10.55,2.15-.54a15.33,15.33,0,0,1-2.32,1.29l-3.43,15.11,2.49-.62a17,17,0,0,1-2.67,1.45l-2.38,10.46,4.85-1.21a17.38,17.38,0,0,1-5.1,2.31l-.41,1.82L111,450.9a17.76,17.76,0,0,1-7.67,2.8l-.59,2.6,2.48-.61a16.52,16.52,0,0,1-2.67,1.44Z" style="fill: rgb(69, 90, 100); transform-origin: 112.805px 436.78px; --darkreader-inline-fill: #b3aca2;" id="elur5py9jllfi" class="animable" data-darkreader-inline-fill=""></path><path d="M105.72,446.49c1.23.47,5.81,2.34,6.8,2.88v-.62l-3.32-1.94a37.77,37.77,0,0,1-3.57-2.13s0-.15.05-.12a29.9,29.9,0,0,1,3.5,1.94c1.12.66,2.23,1.34,3.34,2,0-1.59,0-3.19,0-4.78a37.5,37.5,0,0,1-5.21-2.65c-.06,0,0-.14,0-.11a38.26,38.26,0,0,1,5.18,2.55c0-.83,0-7.21.18-15.29-1.09-.55-2.21-1-3.29-1.58-.07,0,0-.16,0-.13,1.1.43,2.16.94,3.24,1.41q.09-3.3.28-6.59c0-.08.11-.08.11,0,.16,4.08.14,12,.09,16.08,1.13-.9,2.33-1.7,3.47-2.57,0,0,.09.05,0,.08-1.19.91-2.31,1.92-3.51,2.82,0,.24,0,.47,0,.7,1.22-.56,2.46-1.08,3.69-1.61.09,0,.18.1.08.15-1.25.6-2.5,1.21-3.78,1.78,0,2-.21,9.34-.28,12.87,2.3-1.16,4.62-2.3,7-3.39.09-.05.17.08.08.13a72.29,72.29,0,0,1-7,3.53c-.06,2.94-.12,6.43-.16,9.37a.14.14,0,0,1-.28,0c0-3.75.05-8.05.06-11.79a71.44,71.44,0,0,1-6.89-2.8A.12.12,0,0,1,105.72,446.49Z" style="fill: rgb(55, 71, 79); transform-origin: 112.718px 441.34px; --darkreader-inline-fill: #beb8b0;" id="el06u9dxs3e52e" class="animable" data-darkreader-inline-fill=""></path><path d="M405.32,461.42H381.26l1.17-6.33a17,17,0,0,0,9-3.75L382.63,454l3.24-17.45a17.21,17.21,0,0,0,3.65-2.29l-3.42,1,.53-2.85a17.56,17.56,0,0,0,5.18-2.93L386.9,431,390,414.51a15.38,15.38,0,0,0,1.86-1.32l-1.71.53,3.18-17.16,4.56,24.58-4-1.89a14.86,14.86,0,0,0,4.24,3.43h0l4.3,23.14-6.66-2.57a14.68,14.68,0,0,0,6.91,3.95l.44,2.37-3.58-.82a13.42,13.42,0,0,0,3.82,2.13Z" style="fill: rgb(55, 71, 79); transform-origin: 393.29px 428.99px; --darkreader-inline-fill: #beb8b0;" id="elx65iyrh5w8f" class="animable" data-darkreader-inline-fill=""></path><path d="M401.3,440.33c-1.44.55-6.56,2.62-7.71,3.25v-.72q1.92-1.14,3.86-2.26a31.77,31.77,0,0,0,3.6-2c.06-.05,0-.18-.06-.14a24.31,24.31,0,0,0-3.51,1.82c-1.31.77-2.6,1.56-3.9,2.36,0-1.86,0-3.72,0-5.57a43.94,43.94,0,0,0,6.08-3.09c.06,0,0-.16-.06-.13a46.06,46.06,0,0,0-6,3c0-1,0-1.93,0-2.89-.05-5-.06-9.95-.19-14.91,1.26-.64,2.57-1.2,3.83-1.85.08,0,0-.18-.07-.15-1.28.5-2.51,1.1-3.77,1.65-.07-2.56-.17-5.13-.32-7.69,0-.08-.13-.08-.13,0-.18,4.76-.17,9.53-.11,14.29-1.31-1.05-2.7-2-4-3-.05,0-.1,0-.05.08,1.4,1.06,2.7,2.24,4.1,3.3,0,.26,0,.53,0,.8-1.42-.65-2.86-1.25-4.3-1.87-.11,0-.21.12-.1.17,1.47.7,2.92,1.42,4.4,2.08q.06,3.54.11,7.08c0,4.12.14,8.23.23,12.35q-4-2-8.1-3.95c-.1-.05-.19.09-.09.15a83.76,83.76,0,0,0,8.2,4.12c.07,3.42.14,11.28.18,14.7a.17.17,0,0,0,.33,0c-.05-4.36-.06-13.16-.07-17.53a75.88,75.88,0,0,0,7.81-3.16C401.53,440.51,401.44,440.28,401.3,440.33Z" style="fill: rgb(69, 90, 100); transform-origin: 393.248px 436.194px; --darkreader-inline-fill: #b3aca2;" id="elyi69y2kk80m" class="animable" data-darkreader-inline-fill=""></path><path d="M196.31,461.42H178.75l2.05-9.07a11.68,11.68,0,0,0,5.61-1.75l-5.44,1,2.51-11.08a10.34,10.34,0,0,0,2.23-1.42l-2.05.65.33-1.48a10.76,10.76,0,0,0,3.1-2l-2.89,1.13,3.32-14.67L189.4,431l-1.69-.42a12.2,12.2,0,0,0,1.83,1l2.69,11.88-1.95-.49a12.84,12.84,0,0,0,2.1,1.14l1.86,8.22-3.81-.95a13.91,13.91,0,0,0,4,1.81l.32,1.43-5.86-1.46a14,14,0,0,0,6,2.2l.46,2-1.95-.49a13.42,13.42,0,0,0,2.1,1.14Z" style="fill: rgb(55, 71, 79); transform-origin: 187.53px 442.075px; --darkreader-inline-fill: #beb8b0;" id="elykuz14yt53" class="animable" data-darkreader-inline-fill=""></path><path d="M193.07,449.69c-1,.37-4.56,1.83-5.34,2.26v-.49l2.61-1.52c.93-.55,1.93-1,2.8-1.67.05,0,0-.12,0-.1a23.59,23.59,0,0,0-2.74,1.52c-.89.52-1.76,1.05-2.63,1.59,0-1.25,0-2.5,0-3.75a31,31,0,0,0,4.1-2.09s0-.11,0-.09a29.46,29.46,0,0,0-4.06,2c0-.65,0-5.67-.14-12,.85-.43,1.73-.81,2.58-1.24.06,0,0-.13,0-.1-.87.33-1.7.74-2.55,1.11-.05-1.73-.11-3.46-.22-5.19a0,0,0,0,0-.09,0c-.12,3.21-.11,9.43-.07,12.64-.88-.7-1.82-1.33-2.72-2,0,0-.07,0,0,.06.94.71,1.82,1.5,2.77,2.22v.54c-.95-.44-1.93-.84-2.89-1.26-.08,0-.15.08-.07.12,1,.47,2,.95,3,1.4,0,1.59.17,7.33.22,10.11-1.8-.91-3.63-1.8-5.46-2.67-.07,0-.13.07-.06.11a59.53,59.53,0,0,0,5.53,2.78c0,2.31.1,5,.13,7.35,0,.14.22.14.21,0,0-2.94,0-6.32,0-9.26a55.66,55.66,0,0,0,5.41-2.2C193.23,449.8,193.17,449.65,193.07,449.69Z" style="fill: rgb(69, 90, 100); transform-origin: 187.734px 445.682px; --darkreader-inline-fill: #b3aca2;" id="elhm4pfb7b0q" class="animable" data-darkreader-inline-fill=""></path><path d="M338.69,461.42H321.13l2.05-9.07a11.68,11.68,0,0,0,5.61-1.75l-5.44,1,2.51-11.08a10.4,10.4,0,0,0,2.24-1.42l-2.06.65.33-1.48a10.76,10.76,0,0,0,3.1-2l-2.89,1.13,3.32-14.67,1.88,8.29-1.68-.42a11.72,11.72,0,0,0,1.82,1l2.69,11.88-1.95-.49a12.84,12.84,0,0,0,2.1,1.14l1.86,8.22-3.81-.95a13.91,13.91,0,0,0,4,1.81l.32,1.43-5.86-1.46a14,14,0,0,0,6,2.2l.47,2-1.95-.49a13,13,0,0,0,2.09,1.14Z" style="fill: rgb(55, 71, 79); transform-origin: 329.91px 442.075px; --darkreader-inline-fill: #beb8b0;" id="ela7rxqlbsl3u" class="animable" data-darkreader-inline-fill=""></path><path d="M335.46,449.69c-1,.37-4.57,1.83-5.35,2.26v-.49l2.61-1.52c.93-.55,1.93-1,2.8-1.67.05,0,0-.12,0-.1a22.92,22.92,0,0,0-2.75,1.52c-.89.52-1.76,1.05-2.63,1.59,0-1.25,0-2.5,0-3.75a31,31,0,0,0,4.1-2.09,0,0,0,0,0,0-.09,30,30,0,0,0-4.06,2c0-.65,0-5.67-.14-12,.85-.43,1.73-.81,2.58-1.24.06,0,0-.13,0-.1-.87.33-1.7.74-2.55,1.11,0-1.73-.11-3.46-.22-5.19a0,0,0,0,0-.09,0c-.12,3.21-.11,9.43-.06,12.64-.89-.7-1.83-1.33-2.73-2,0,0-.07,0,0,.06.94.71,1.82,1.5,2.76,2.22,0,.18,0,.36,0,.54-1-.44-1.93-.84-2.9-1.26-.08,0-.15.08-.07.12,1,.47,2,.95,3,1.4,0,1.59.17,7.33.23,10.11-1.81-.91-3.64-1.8-5.47-2.67-.07,0-.13.07-.06.11a59.53,59.53,0,0,0,5.53,2.78c.05,2.31.1,5,.13,7.35a.11.11,0,0,0,.22,0c0-2.94,0-6.32-.05-9.26a55.66,55.66,0,0,0,5.41-2.2C335.61,449.8,335.55,449.65,335.46,449.69Z" style="fill: rgb(69, 90, 100); transform-origin: 330.064px 445.685px; --darkreader-inline-fill: #b3aca2;" id="elvzaeftd1yd" class="animable" data-darkreader-inline-fill=""></path><path d="M444.21,461.42H426.65l2.06-9.07a11.68,11.68,0,0,0,5.61-1.75l-5.44,1,2.51-11.08a10.58,10.58,0,0,0,2.23-1.42l-2.06.65.34-1.48a10.72,10.72,0,0,0,3.09-2l-2.88,1.13,3.32-14.67,1.88,8.29-1.69-.42a12.37,12.37,0,0,0,1.82,1l2.7,11.88-2-.49a12.84,12.84,0,0,0,2.1,1.14l1.87,8.22-3.82-.95a14,14,0,0,0,4,1.81l.32,1.43-5.86-1.46a14,14,0,0,0,6,2.2l.46,2-1.95-.49a12.84,12.84,0,0,0,2.1,1.14Z" style="fill: rgb(55, 71, 79); transform-origin: 435.43px 442.075px; --darkreader-inline-fill: #beb8b0;" id="el90xrr74prkg" class="animable" data-darkreader-inline-fill=""></path><path d="M441,449.69c-1,.37-4.57,1.83-5.34,2.26,0-.16,0-.33,0-.49l2.61-1.52a31.5,31.5,0,0,0,2.81-1.67s0-.12,0-.1a24.58,24.58,0,0,0-2.75,1.52c-.88.52-1.76,1.05-2.63,1.59,0-1.25,0-2.5,0-3.75a31,31,0,0,0,4.1-2.09s0-.11,0-.09a29.46,29.46,0,0,0-4.06,2c0-.65,0-5.67-.15-12,.86-.43,1.73-.81,2.59-1.24.05,0,0-.13-.05-.1-.86.33-1.69.74-2.54,1.11-.05-1.73-.12-3.46-.22-5.19,0-.05-.09-.06-.09,0-.12,3.21-.11,9.43-.07,12.64-.88-.7-1.83-1.33-2.72-2,0,0-.07,0,0,.06.94.71,1.82,1.5,2.76,2.22,0,.18,0,.36,0,.54-1-.44-1.93-.84-2.9-1.26-.07,0-.14.08-.06.12,1,.47,2,.95,3,1.4,0,1.59.17,7.33.23,10.11q-2.71-1.37-5.46-2.67c-.07,0-.14.07-.07.11a59.7,59.7,0,0,0,5.54,2.78c.05,2.31.09,5,.12,7.35a.11.11,0,0,0,.22,0c0-2.94,0-6.32,0-9.26a56.7,56.7,0,0,0,5.41-2.2C441.14,449.8,441.07,449.65,441,449.69Z" style="fill: rgb(69, 90, 100); transform-origin: 435.621px 445.664px; --darkreader-inline-fill: #b3aca2;" id="elqsgp7gyces" class="animable" data-darkreader-inline-fill=""></path><path d="M82.89,461.42H58.82L60,455.09a17,17,0,0,0,9-3.75L60.2,454l3.24-17.45a17.21,17.21,0,0,0,3.65-2.29l-3.42,1,.52-2.85a17.86,17.86,0,0,0,5.19-2.93L64.46,431l3.07-16.53a14.68,14.68,0,0,0,1.85-1.32l-1.7.53,3.18-17.16,4.56,24.58-4-1.89a14.86,14.86,0,0,0,4.24,3.43h0L80,445.82l-6.65-2.57a14.63,14.63,0,0,0,6.91,3.95l.44,2.37-3.58-.82a13.29,13.29,0,0,0,3.82,2.13Z" style="fill: rgb(55, 71, 79); transform-origin: 70.855px 428.97px; --darkreader-inline-fill: #beb8b0;" id="eldcl4m22rzr" class="animable" data-darkreader-inline-fill=""></path><path d="M78.86,440.33c-1.44.55-6.55,2.62-7.7,3.25,0-.24,0-.48,0-.72L75,440.6a32.53,32.53,0,0,0,3.59-2c.07-.05,0-.18-.06-.14a24.73,24.73,0,0,0-3.5,1.82q-2,1.15-3.9,2.36c0-1.86,0-3.72,0-5.57a43.83,43.83,0,0,0,6.07-3.09c.07,0,0-.16,0-.13a44.85,44.85,0,0,0-6,3c0-1,0-1.93,0-2.89-.06-5-.07-9.95-.19-14.91,1.26-.64,2.56-1.2,3.83-1.85.08,0,0-.18-.07-.15-1.28.5-2.52,1.1-3.77,1.65-.07-2.56-.17-5.13-.33-7.69a.07.07,0,0,0-.13,0c-.18,4.76-.16,9.53-.1,14.29-1.31-1.05-2.71-2-4-3,0,0-.1,0,0,.08,1.39,1.06,2.7,2.24,4.09,3.3,0,.26,0,.53,0,.8-1.42-.65-2.86-1.25-4.29-1.87-.11,0-.21.12-.1.17,1.46.7,2.92,1.42,4.4,2.08,0,2.36.07,4.72.1,7.08.06,4.12.15,8.23.24,12.35-2.68-1.35-5.39-2.67-8.1-3.95-.11-.05-.2.09-.1.15a84.89,84.89,0,0,0,8.2,4.12c.07,3.42.15,11.28.19,14.7a.16.16,0,0,0,.32,0c0-4.36,0-13.16-.06-17.53a74.81,74.81,0,0,0,7.8-3.16C79.09,440.51,79,440.28,78.86,440.33Z" style="fill: rgb(69, 90, 100); transform-origin: 70.8834px 436.218px; --darkreader-inline-fill: #b3aca2;" id="elbht9tkfw6h" class="animable" data-darkreader-inline-fill=""></path></g><g id="freepik--Device--inject-5" class="animable animator-active" style="transform-origin: 249.984px 218.075px;"><path d="M158.94,176.58c11.7.57,23.44,1.28,35,3.64,1.44.32,2.87.68,4.27,1.14a8.46,8.46,0,0,1,3.91,2.17,1.38,1.38,0,0,1,.18,1.25,2.41,2.41,0,0,1-.75.94,8.85,8.85,0,0,1-2,1.07,30.43,30.43,0,0,1-4.23,1.32,140.37,140.37,0,0,1-17.4,2.68c-11.68,1.1-23.41,1.56-35.13,1.73s-23.45-.35-35.16-.67l17.57.26c5.86.16,11.72.13,17.58,0,11.71-.23,23.43-.76,35.08-1.93a140.18,140.18,0,0,0,17.34-2.56,32.43,32.43,0,0,0,4.17-1.27,8.58,8.58,0,0,0,1.87-1c.58-.41.89-1.05.49-1.58a8.33,8.33,0,0,0-3.67-2c-1.38-.46-2.8-.82-4.22-1.15A160.74,160.74,0,0,0,176.46,178C170.63,177.4,164.79,176.94,158.94,176.58Z" style="fill: rgb(199, 199, 199); transform-origin: 155.003px 184.567px; --darkreader-inline-fill: #c5c0b8;" id="elgtpvw31mnip" class="animable" data-darkreader-inline-fill=""></path><path d="M86.81,190.42c-4.14-.35-8.28-.8-12.4-1.41s-8.26-1.33-12.12-3.07A5.82,5.82,0,0,1,61,185a1.52,1.52,0,0,1-.42-1.64,5.22,5.22,0,0,1,2.61-1.89,36.62,36.62,0,0,1,6-1.75c4.09-.86,8.22-1.44,12.35-1.93,8.29-.89,16.6-1.39,24.92-1.71s16.64-.39,25-.26q-12.48.15-24.94.66c-8.31.38-16.61,1-24.87,1.9-4.13.46-8.25,1-12.31,1.83a35.32,35.32,0,0,0-6,1.68,4.91,4.91,0,0,0-2.39,1.64c-.35.85.69,1.61,1.55,2,3.73,1.73,7.91,2.41,12,3.14S82.68,190,86.81,190.42Z" style="fill: rgb(199, 199, 199); transform-origin: 95.9765px 183.089px; --darkreader-inline-fill: #c5c0b8;" id="elp8ztmcj2qqk" class="animable" data-darkreader-inline-fill=""></path><path d="M98,174.8c-7.09.38-14.18.88-21.24,1.59a193.4,193.4,0,0,0-21.06,3,53,53,0,0,0-5.13,1.35c-1.62.58-3.43,1.17-4.49,2.44-.5.67-.11,1.49.6,2A10,10,0,0,0,49,186.41,37.75,37.75,0,0,0,54,188a170.82,170.82,0,0,0,21,3.24c14.11,1.48,28.3,2.2,42.49,2.56,7.1.17,14.2.26,21.3.09l21.3-.22c-14.19.28-28.4.92-42.6.52s-28.41-.93-42.55-2.36a168.42,168.42,0,0,1-21.06-3.35,37,37,0,0,1-5.11-1.62,10.26,10.26,0,0,1-2.38-1.31,3,3,0,0,1-.9-1.12,1.66,1.66,0,0,1,.22-1.47c1.27-1.48,3.07-2,4.73-2.59A52.53,52.53,0,0,1,55.66,179C69.63,176.22,83.86,175.43,98,174.8Z" style="fill: rgb(199, 199, 199); transform-origin: 102.749px 184.559px; --darkreader-inline-fill: #c5c0b8;" id="eliw1o3f5tma" class="animable" data-darkreader-inline-fill=""></path><path d="M185.33,192.07c5-.52,10-1.13,15-1.95s10-1.64,14.55-3.71c1-.5,2.34-1.41,1.92-2.5a6,6,0,0,0-2.91-2,43.32,43.32,0,0,0-7.22-2.09c-4.92-1-9.91-1.72-14.91-2.31-10-1.2-20.05-1.94-30.12-2.45s-20.14-.77-30.22-.93c10.08-.08,20.17.07,30.24.53s20.14,1.12,30.17,2.26c5,.62,10,1.35,15,2.42a43.39,43.39,0,0,1,7.28,2.15,6.27,6.27,0,0,1,3.12,2.28,1.79,1.79,0,0,1-.5,1.94,7.55,7.55,0,0,1-1.62,1.09,34.49,34.49,0,0,1-7.23,2.28c-2.47.56-5,1-7.45,1.36C195.37,191.13,190.36,191.65,185.33,192.07Z" style="fill: rgb(199, 199, 199); transform-origin: 174.377px 183.09px; --darkreader-inline-fill: #c5c0b8;" id="elyhrd2e2j82" class="animable" data-darkreader-inline-fill=""></path><path d="M340.79,177.1c-5.85.33-11.7.75-17.53,1.34a161,161,0,0,0-17.37,2.49c-1.43.32-2.85.67-4.23,1.12a8.44,8.44,0,0,0-3.69,2c-.39.53-.09,1.17.49,1.58a8.39,8.39,0,0,0,1.87,1,30.72,30.72,0,0,0,4.15,1.29,138.65,138.65,0,0,0,17.33,2.66c11.65,1.24,23.36,1.83,35.07,2.13,5.86.15,11.72.22,17.57.09l17.58-.16c-11.71.25-23.43.8-35.16.47s-23.44-.76-35.12-1.93a140.48,140.48,0,0,1-17.39-2.78,30.83,30.83,0,0,1-4.22-1.34,8.28,8.28,0,0,1-2-1.09,2.34,2.34,0,0,1-.75-.94,1.35,1.35,0,0,1,.19-1.25c1.06-1.24,2.55-1.64,3.92-2.15s2.84-.8,4.27-1.11C317.34,178.25,329.09,177.6,340.79,177.1Z" style="fill: rgb(199, 199, 199); transform-origin: 344.672px 185.156px; --darkreader-inline-fill: #c5c0b8;" id="el3tvgm5ttmz3" class="animable" data-darkreader-inline-fill=""></path><path d="M412.83,191.36c4.14-.44,8.27-1,12.37-1.63s8.26-1.36,12-3.07c.86-.42,1.9-1.16,1.56-2a5,5,0,0,0-2.38-1.66,35.56,35.56,0,0,0-5.95-1.71c-4.06-.85-8.18-1.42-12.31-1.9-8.24-1-16.54-1.61-24.85-2s-16.62-.65-24.94-.8q12.48-.14,25,.4c8.31.37,16.63.91,24.91,1.85,4.13.52,8.26,1.12,12.34,2a35.67,35.67,0,0,1,6,1.78,5.22,5.22,0,0,1,2.6,1.9,1.53,1.53,0,0,1-.43,1.64,6.22,6.22,0,0,1-1.34.91c-3.87,1.72-8,2.33-12.13,3S417,191,412.83,191.36Z" style="fill: rgb(199, 199, 199); transform-origin: 403.796px 183.961px; --darkreader-inline-fill: #c5c0b8;" id="elnryamjcxel" class="animable" data-darkreader-inline-fill=""></path><path d="M401.7,175.66c14.17.72,28.4,1.6,42.36,4.46,1.73.38,3.46.82,5.16,1.37s3.46,1.13,4.72,2.62a1.6,1.6,0,0,1,.21,1.46,2.87,2.87,0,0,1-.9,1.12,10.11,10.11,0,0,1-2.39,1.3,37.39,37.39,0,0,1-5.12,1.59,168.72,168.72,0,0,1-21.08,3.23c-14.15,1.35-28.36,1.91-42.56,2.12s-28.41-.41-42.6-.77l21.3.35c7.1.2,14.2.16,21.29,0,14.2-.27,28.39-.91,42.52-2.31a170.71,170.71,0,0,0,21-3.12,36.83,36.83,0,0,0,5.05-1.55,9.59,9.59,0,0,0,2.28-1.22c.71-.48,1.11-1.3.61-2-1.06-1.28-2.86-1.88-4.48-2.47s-3.39-1-5.12-1.38a193,193,0,0,0-21-3.13C415.87,176.63,408.79,176.09,401.7,175.66Z" style="fill: rgb(199, 199, 199); transform-origin: 396.87px 185.316px; --darkreader-inline-fill: #c5c0b8;" id="elxwzpt7deqn" class="animable" data-darkreader-inline-fill=""></path><path d="M314.31,192.43c-5-.44-10-1-15-1.74-2.49-.39-5-.83-7.44-1.4a34.34,34.34,0,0,1-7.22-2.32,7.53,7.53,0,0,1-1.61-1.1,1.8,1.8,0,0,1-.5-1.94,6.27,6.27,0,0,1,3.14-2.26,42.7,42.7,0,0,1,7.29-2.11c4.95-1.05,9.95-1.75,15-2.34,10-1.08,20.1-1.69,30.18-2.08s20.16-.5,30.24-.36c-10.08.1-20.16.33-30.22.76S318,176.67,308,177.81c-5,.56-10,1.23-14.92,2.23a42.36,42.36,0,0,0-7.23,2,6,6,0,0,0-2.92,2c-.43,1.09.86,2,1.9,2.51,4.53,2.1,9.6,2.92,14.53,3.8S309.3,191.89,314.31,192.43Z" style="fill: rgb(199, 199, 199); transform-origin: 325.414px 183.576px; --darkreader-inline-fill: #c5c0b8;" id="elqzxf9ybb14" class="animable" data-darkreader-inline-fill=""></path><polygon points="107.08 198.82 220.17 195.75 220.13 209.16 108.74 212.23 107.08 198.82" style="fill: rgb(255, 199, 39); transform-origin: 163.625px 203.99px; --darkreader-inline-fill: #ffcb35;" id="eloim8q0zo5ba" class="animable" data-darkreader-inline-fill=""></polygon><g id="elj0wcgbq9pn"><polygon points="107.08 198.82 220.17 195.75 220.13 209.16 108.74 212.23 107.08 198.82" style="opacity: 0.1; transform-origin: 163.625px 203.99px;" class="animable"></polygon></g><polygon points="151.73 216.76 115.84 217.85 114.17 212.07 153.44 211 151.73 216.76" style="fill: rgb(255, 199, 39); transform-origin: 133.805px 214.425px; --darkreader-inline-fill: #ffcb35;" id="eloeqkzalypdd" class="animable" data-darkreader-inline-fill=""></polygon><g id="eluavsz1n4bp"><polygon points="151.73 216.76 115.84 217.85 114.17 212.07 153.44 211 151.73 216.76" style="opacity: 0.2; transform-origin: 133.805px 214.425px;" class="animable"></polygon></g><g id="elrgm58che34a"><rect x="128.05" y="186.6" width="11.6" height="11.6" style="fill: rgb(38, 50, 56); transform-origin: 133.85px 192.4px; transform: rotate(0.16deg); --darkreader-inline-fill: #cac6bf;" class="animable" data-darkreader-inline-fill=""></rect></g><g id="el4y00p3kpgft"><rect x="131.38" y="180.22" width="5" height="6.38" style="fill: rgb(55, 71, 79); transform-origin: 133.88px 183.41px; transform: rotate(0.16deg); --darkreader-inline-fill: #beb8b0;" class="animable" data-darkreader-inline-fill=""></rect></g><polygon points="131.39 181.13 74.25 180.97 74.25 182.17 116.68 185.7 131.38 183.15 131.39 181.13" style="fill: rgb(166, 166, 166); transform-origin: 102.82px 183.335px; --darkreader-inline-fill: #b0a99f;" id="el9g0qoqw6z2" class="animable" data-darkreader-inline-fill=""></polygon><polygon points="136.39 181.15 193.52 181.31 193.52 182.51 151.07 185.79 136.38 183.16 136.39 181.15" style="fill: rgb(166, 166, 166); transform-origin: 164.95px 183.47px; --darkreader-inline-fill: #b0a99f;" id="el39w5f5f0znd" class="animable" data-darkreader-inline-fill=""></polygon><polygon points="394.43 199.64 281.36 195.93 281.32 209.34 392.7 213.04 394.43 199.64" style="fill: rgb(255, 199, 39); transform-origin: 337.875px 204.485px; --darkreader-inline-fill: #ffcb35;" id="ell897vxcdj2" class="animable" data-darkreader-inline-fill=""></polygon><g id="el3smw1nbxd23"><polygon points="394.43 199.64 281.36 195.93 281.32 209.34 392.7 213.04 394.43 199.64" style="opacity: 0.1; transform-origin: 337.875px 204.485px;" class="animable"></polygon></g><polygon points="349.69 217.33 385.56 218.62 387.27 212.86 348.01 211.56 349.69 217.33" style="fill: rgb(255, 199, 39); transform-origin: 367.64px 215.09px; --darkreader-inline-fill: #ffcb35;" id="elddnn7sh19t" class="animable" data-darkreader-inline-fill=""></polygon><g id="el4nmxinwqdht"><polygon points="349.69 217.33 385.56 218.62 387.27 212.86 348.01 211.56 349.69 217.33" style="opacity: 0.2; transform-origin: 367.64px 215.09px;" class="animable"></polygon></g><g id="el6zare59gpsc"><rect x="361.87" y="187.3" width="11.6" height="11.6" style="fill: rgb(38, 50, 56); transform-origin: 367.67px 193.1px; transform: rotate(-179.84deg); --darkreader-inline-fill: #cac6bf;" class="animable" data-darkreader-inline-fill=""></rect></g><g id="el1930x3v4cc1k"><rect x="365.2" y="180.92" width="5" height="6.38" style="fill: rgb(55, 71, 79); transform-origin: 367.7px 184.11px; transform: rotate(-179.83deg); --darkreader-inline-fill: #beb8b0;" class="animable" data-darkreader-inline-fill=""></rect></g><polygon points="370.2 181.84 427.34 182.01 427.34 183.21 384.88 186.49 370.2 183.86 370.2 181.84" style="fill: rgb(166, 166, 166); transform-origin: 398.77px 184.165px; --darkreader-inline-fill: #b0a99f;" id="el9rdr4e9ew5w" class="animable" data-darkreader-inline-fill=""></polygon><polygon points="365.2 181.83 308.07 181.67 308.06 182.87 350.49 186.39 365.2 183.85 365.2 181.83" style="fill: rgb(166, 166, 166); transform-origin: 336.63px 184.03px; --darkreader-inline-fill: #b0a99f;" id="elk2nr31xh1d9" class="animable" data-darkreader-inline-fill=""></polygon><g id="elub4yywqc4d"><path d="M115.56,204.49c89.6-1.34,180.19-1.35,269.78,0-89.6,1.34-180.18,1.33-269.78,0Z" style="opacity: 0.2; transform-origin: 250.45px 204.486px;" class="animable"></path></g><polygon points="408.26 158.95 406.55 164.72 370.67 164.61 369 158.84 408.26 158.95" style="fill: rgb(255, 199, 39); transform-origin: 388.63px 161.78px; --darkreader-inline-fill: #ffcb35;" id="el9jm9wc4w5s5" class="animable" data-darkreader-inline-fill=""></polygon><g id="el5m3kr5ymaso"><polygon points="408.26 158.95 406.55 164.72 370.67 164.61 369 158.84 408.26 158.95" style="fill: rgb(255, 199, 39); opacity: 0.1; transform-origin: 388.63px 161.78px; --darkreader-inline-fill: #ffcb35;" class="animable" data-darkreader-inline-fill=""></polygon></g><g id="elzauzksgzt5s"><rect x="387.33" y="127.55" width="5" height="6.38" style="fill: rgb(255, 199, 39); transform-origin: 389.83px 130.74px; transform: rotate(-179.83deg); --darkreader-inline-fill: #ffcb35;" class="animable" data-darkreader-inline-fill=""></rect></g><polygon points="392.34 128.48 449.48 128.64 449.47 129.84 407.02 133.13 392.33 130.5 392.34 128.48" style="fill: rgb(166, 166, 166); transform-origin: 420.905px 130.805px; --darkreader-inline-fill: #b0a99f;" id="elq7lfykzb6no" class="animable" data-darkreader-inline-fill=""></polygon><polygon points="244.55 227.95 255.45 227.95 257.14 233.72 242.86 233.72 244.55 227.95" style="fill: rgb(255, 199, 39); transform-origin: 250px 230.835px; --darkreader-inline-fill: #ffcb35;" id="elrk6ce6vera" class="animable" data-darkreader-inline-fill=""></polygon><g id="el21gcnvgxyls"><polygon points="244.55 227.95 255.45 227.95 257.14 233.72 242.86 233.72 244.55 227.95" style="opacity: 0.1; transform-origin: 250px 230.835px;" class="animable"></polygon></g><rect x="246.73" y="220.41" width="6.55" height="7.54" style="fill: rgb(255, 199, 39); transform-origin: 250.005px 224.18px; --darkreader-inline-fill: #ffcb35;" id="eli0feop6txlp" class="animable" data-darkreader-inline-fill=""></rect><g id="elniur3q7xtmm"><circle cx="250" cy="260.72" r="28.17" style="fill: rgb(255, 199, 39); transform-origin: 250px 260.72px; transform: rotate(-21.75deg); --darkreader-inline-fill: #ffcb35;" class="animable" data-darkreader-inline-fill=""></circle></g><g id="elp9fanci5mt"><circle cx="250" cy="260.72" r="19.83" style="opacity: 0.1; transform-origin: 250px 260.72px; transform: rotate(-21.34deg);" class="animable"></circle></g><g id="elu604e6fin7c"><circle cx="250" cy="260.72" r="15.51" style="fill: rgb(38, 50, 56); transform-origin: 250px 260.72px; transform: rotate(-73.22deg); --darkreader-inline-fill: #cac6bf;" class="animable" data-darkreader-inline-fill=""></circle></g><path d="M255.14,260.72a5.14,5.14,0,1,1-5.14-5.14A5.15,5.15,0,0,1,255.14,260.72Z" style="fill: rgb(55, 71, 79); transform-origin: 250px 260.72px; --darkreader-inline-fill: #beb8b0;" id="elzs7scdfzxjh" class="animable" data-darkreader-inline-fill=""></path><path d="M258.13,252.76c-.75,1.29-2.82,1.5-4.63.46s-2.66-2.94-1.91-4.24,2.82-1.5,4.62-.46S258.87,251.46,258.13,252.76Z" style="fill: rgb(255, 255, 255); transform-origin: 254.856px 250.868px; --darkreader-inline-fill: #e8e6e3;" id="elckzv1npqudf" class="animable" data-darkreader-inline-fill=""></path><path d="M261.39,258.43a1.92,1.92,0,0,1-2.4-1.08c-.59-1-.48-2.2.26-2.63s1.81.06,2.4,1.09A1.92,1.92,0,0,1,261.39,258.43Z" style="fill: rgb(255, 255, 255); transform-origin: 260.33px 256.55px; --darkreader-inline-fill: #e8e6e3;" id="elow686flio6" class="animable" data-darkreader-inline-fill=""></path><path d="M269.23,244.38a2,2,0,1,1-2-2A2,2,0,0,1,269.23,244.38Z" style="fill: rgb(206, 90, 74); transform-origin: 267.23px 244.38px; --darkreader-inline-fill: #d26758;" id="eld0ij6kuyh5h" class="animable" data-darkreader-inline-fill=""></path><path d="M223.87,287.43a48.43,48.43,0,0,0,53.16,0c-15.21,11.59-37.94,11.57-53.16,0Z" style="fill: rgb(38, 50, 56); transform-origin: 250.45px 291.772px; --darkreader-inline-fill: #cac6bf;" id="eliwj9ubfzw59" class="animable" data-darkreader-inline-fill=""></path><path d="M215.54,294.83a62.73,62.73,0,0,0,69.82,0,58.46,58.46,0,0,1-16.52,8.46,59.65,59.65,0,0,1-53.3-8.46Z" style="fill: rgb(38, 50, 56); transform-origin: 250.45px 300.5px; --darkreader-inline-fill: #cac6bf;" id="eln82lt6h52f9" class="animable" data-darkreader-inline-fill=""></path><path d="M205.17,302.59c23.23,15.94,54.79,18.36,80.12,6a78.17,78.17,0,0,0,10.44-6,77.73,77.73,0,0,1-10.28,6.3c-25.22,13-57.43,10.54-80.28-6.3Z" style="fill: rgb(38, 50, 56); transform-origin: 250.45px 309.88px; --darkreader-inline-fill: #cac6bf;" id="el0ima8p672b8u" class="animable" data-darkreader-inline-fill=""></path><path d="M138.88,121.44c11.7.57,23.44,1.28,35,3.64,1.44.32,2.87.68,4.27,1.13s2.86.93,3.91,2.18a1.36,1.36,0,0,1,.18,1.24,2.28,2.28,0,0,1-.75.94,8.5,8.5,0,0,1-2,1.08,31.84,31.84,0,0,1-4.23,1.32,138.49,138.49,0,0,1-17.4,2.67c-11.68,1.11-23.41,1.57-35.13,1.74s-23.45-.35-35.16-.67l17.57.26c5.86.16,11.72.12,17.58,0,11.71-.24,23.43-.76,35.08-1.93a138.33,138.33,0,0,0,17.34-2.57,30.89,30.89,0,0,0,4.17-1.26,8.58,8.58,0,0,0,1.87-1c.58-.41.89-1.05.49-1.58a8.34,8.34,0,0,0-3.67-2c-1.38-.45-2.8-.82-4.22-1.14a160.74,160.74,0,0,0-17.36-2.59C150.57,122.26,144.73,121.8,138.88,121.44Z" style="fill: rgb(199, 199, 199); transform-origin: 134.943px 129.427px; --darkreader-inline-fill: #c5c0b8;" id="elo3g46m2erjh" class="animable" data-darkreader-inline-fill=""></path><path d="M66.75,135.28c-4.14-.36-8.28-.8-12.4-1.41s-8.26-1.33-12.12-3.07a6.16,6.16,0,0,1-1.33-.91,1.52,1.52,0,0,1-.42-1.64,5.22,5.22,0,0,1,2.61-1.89,35.67,35.67,0,0,1,6-1.75c4.09-.87,8.22-1.44,12.35-1.94,8.29-.89,16.6-1.38,24.92-1.7s16.64-.39,25-.26q-12.48.15-24.94.66c-8.31.38-16.61.95-24.87,1.9-4.13.46-8.25,1-12.31,1.83a34.39,34.39,0,0,0-6,1.67,4.93,4.93,0,0,0-2.39,1.65c-.35.85.69,1.6,1.55,2,3.73,1.72,7.91,2.41,12,3.13S62.62,134.83,66.75,135.28Z" style="fill: rgb(199, 199, 199); transform-origin: 75.8765px 127.964px; --darkreader-inline-fill: #c5c0b8;" id="eltu4ps9sacti" class="animable" data-darkreader-inline-fill=""></path><path d="M78,119.65c-7.09.39-14.18.89-21.24,1.6a191,191,0,0,0-21.06,3,53,53,0,0,0-5.13,1.36c-1.62.58-3.43,1.17-4.49,2.44-.5.67-.11,1.49.6,2a9.55,9.55,0,0,0,2.27,1.23,35,35,0,0,0,5,1.57,167.09,167.09,0,0,0,21,3.24c14.11,1.49,28.3,2.21,42.49,2.56,7.1.18,14.2.26,21.3.1l21.3-.22c-14.19.28-28.4.92-42.6.52s-28.41-.93-42.55-2.36a168.87,168.87,0,0,1-21.07-3.35,37.27,37.27,0,0,1-5.1-1.62,10.26,10.26,0,0,1-2.38-1.31,3,3,0,0,1-.9-1.13,1.63,1.63,0,0,1,.22-1.46c1.27-1.48,3.07-2,4.73-2.59s3.44-1,5.18-1.35C49.57,121.08,63.8,120.28,78,119.65Z" style="fill: rgb(199, 199, 199); transform-origin: 82.6985px 129.414px; --darkreader-inline-fill: #c5c0b8;" id="el7qyp0xh57r" class="animable" data-darkreader-inline-fill=""></path><path d="M165.27,136.92c5-.51,10-1.12,15-1.94s10-1.64,14.55-3.71c1.05-.51,2.34-1.41,1.92-2.5a6.09,6.09,0,0,0-2.91-2,43.29,43.29,0,0,0-7.22-2.08c-4.92-1-9.91-1.72-14.91-2.31-10-1.2-20.05-1.94-30.12-2.45s-20.14-.78-30.22-.93c10.08-.08,20.17.07,30.24.53s20.14,1.11,30.17,2.26c5,.62,10,1.34,15,2.42a42.47,42.47,0,0,1,7.28,2.15,6.27,6.27,0,0,1,3.12,2.28,1.8,1.8,0,0,1-.5,1.94,7.55,7.55,0,0,1-1.62,1.09,34.49,34.49,0,0,1-7.23,2.28c-2.47.56-5,1-7.45,1.36C175.31,136,170.3,136.51,165.27,136.92Z" style="fill: rgb(199, 199, 199); transform-origin: 154.316px 127.95px; --darkreader-inline-fill: #c5c0b8;" id="elmrhj4b2ptic" class="animable" data-darkreader-inline-fill=""></path><path d="M361.16,122.08c-5.85.32-11.7.74-17.52,1.34a156,156,0,0,0-17.38,2.49c-1.42.31-2.84.67-4.22,1.12a8.27,8.27,0,0,0-3.69,2c-.4.53-.1,1.17.48,1.58a8.21,8.21,0,0,0,1.87,1,30.86,30.86,0,0,0,4.16,1.29,140,140,0,0,0,17.33,2.67c11.64,1.23,23.35,1.83,35.07,2.13,5.85.15,11.71.22,17.57.08l17.58-.15c-11.71.25-23.44.79-35.16.47s-23.45-.77-35.13-1.94a140.3,140.3,0,0,1-17.38-2.77,32.83,32.83,0,0,1-4.22-1.34,8.93,8.93,0,0,1-2-1.09,2.46,2.46,0,0,1-.75-.95,1.39,1.39,0,0,1,.19-1.24,8.48,8.48,0,0,1,3.93-2.15c1.4-.45,2.83-.8,4.27-1.11C337.71,123.22,349.46,122.58,361.16,122.08Z" style="fill: rgb(199, 199, 199); transform-origin: 365.056px 130.139px; --darkreader-inline-fill: #c5c0b8;" id="elakd4d2cde0s" class="animable" data-darkreader-inline-fill=""></path><path d="M433.21,136.33c4.14-.43,8.27-1,12.37-1.63s8.25-1.36,12-3.06c.87-.42,1.91-1.17,1.57-2a4.93,4.93,0,0,0-2.39-1.66,34.39,34.39,0,0,0-5.95-1.71c-4.05-.85-8.17-1.42-12.3-1.9-8.25-1-16.55-1.62-24.85-2s-16.63-.66-24.95-.8c8.33-.09,16.65,0,25,.4s16.62.9,24.9,1.84c4.13.52,8.26,1.12,12.34,2a36.44,36.44,0,0,1,6,1.78,5.27,5.27,0,0,1,2.59,1.91,1.52,1.52,0,0,1-.42,1.64,6.23,6.23,0,0,1-1.35.9c-3.87,1.72-8,2.33-12.13,3S437.36,136,433.21,136.33Z" style="fill: rgb(199, 199, 199); transform-origin: 424.168px 128.934px; --darkreader-inline-fill: #c5c0b8;" id="ely5o6nxvd1r8" class="animable" data-darkreader-inline-fill=""></path><path d="M422.08,120.64c14.17.71,28.4,1.59,42.35,4.45,1.74.39,3.47.82,5.17,1.37s3.45,1.13,4.71,2.62a1.6,1.6,0,0,1,.21,1.47,2.83,2.83,0,0,1-.9,1.12,10,10,0,0,1-2.38,1.29,37.39,37.39,0,0,1-5.12,1.59A168.72,168.72,0,0,1,445,137.78c-14.15,1.35-28.36,1.91-42.56,2.13s-28.41-.41-42.61-.77l21.3.34c7.1.2,14.2.16,21.3,0,14.19-.28,28.39-.91,42.51-2.32a168.83,168.83,0,0,0,21-3.12,37.92,37.92,0,0,0,5.06-1.54,10.39,10.39,0,0,0,2.28-1.22c.71-.49,1.1-1.31.6-2-1.05-1.27-2.86-1.87-4.48-2.47s-3.39-1-5.11-1.38a193.69,193.69,0,0,0-21-3.13C436.25,121.6,429.17,121.06,422.08,120.64Z" style="fill: rgb(199, 199, 199); transform-origin: 417.221px 130.298px; --darkreader-inline-fill: #c5c0b8;" id="el0j1is2tif1aq" class="animable" data-darkreader-inline-fill=""></path><path d="M334.68,137.41c-5-.45-10-1-15-1.74-2.49-.39-5-.83-7.44-1.4a35,35,0,0,1-7.23-2.33,7.74,7.74,0,0,1-1.61-1.09,1.81,1.81,0,0,1-.49-1.95,6.3,6.3,0,0,1,3.13-2.26,43.47,43.47,0,0,1,7.3-2.11c4.95-1,9.95-1.74,15-2.34,10-1.08,20.11-1.69,30.18-2.08s20.17-.5,30.25-.36q-15.12.15-30.23.76c-10.07.45-20.13,1.13-30.13,2.28-5,.56-10,1.22-14.93,2.23a42.51,42.51,0,0,0-7.22,2,6.05,6.05,0,0,0-2.93,2c-.43,1.08.86,2,1.91,2.51,4.53,2.09,9.59,2.91,14.52,3.79S329.67,136.87,334.68,137.41Z" style="fill: rgb(199, 199, 199); transform-origin: 345.787px 128.551px; --darkreader-inline-fill: #c5c0b8;" id="el0bfyim87ri3o" class="animable" data-darkreader-inline-fill=""></path><polygon points="131.99 158.16 130.29 163.92 94.4 163.82 92.72 158.05 131.99 158.16" style="fill: rgb(255, 199, 39); transform-origin: 112.355px 160.985px; --darkreader-inline-fill: #ffcb35;" id="elxrzqn1fpsog" class="animable" data-darkreader-inline-fill=""></polygon><g id="elpowrf5lzt3"><polygon points="131.99 158.16 130.29 163.92 94.4 163.82 92.72 158.05 131.99 158.16" style="fill: rgb(255, 199, 39); opacity: 0.1; transform-origin: 112.355px 160.985px; --darkreader-inline-fill: #ffcb35;" class="animable" data-darkreader-inline-fill=""></polygon></g><polygon points="117.11 133.15 117.08 144.76 113.74 144.75 105.47 144.72 105.5 133.12 108.81 133.13 113.81 133.14 117.11 133.15" style="fill: rgb(55, 71, 79); transform-origin: 111.29px 138.94px; --darkreader-inline-fill: #beb8b0;" id="ell111ja5496m" class="animable" data-darkreader-inline-fill=""></polygon><g id="el916hlowgb9g"><rect x="108.82" y="126.75" width="5" height="6.38" style="fill: rgb(255, 199, 39); transform-origin: 111.32px 129.94px; transform: rotate(0.16deg); --darkreader-inline-fill: #ffcb35;" class="animable" data-darkreader-inline-fill=""></rect></g><polygon points="108.82 127.67 51.69 127.5 51.68 128.71 94.11 132.23 108.82 129.68 108.82 127.67" style="fill: rgb(166, 166, 166); transform-origin: 80.25px 129.865px; --darkreader-inline-fill: #b0a99f;" id="el8wlo0l7jgrf" class="animable" data-darkreader-inline-fill=""></polygon><polygon points="113.82 127.68 170.96 127.84 170.96 129.05 128.5 132.33 113.82 129.7 113.82 127.68" style="fill: rgb(166, 166, 166); transform-origin: 142.39px 130.005px; --darkreader-inline-fill: #b0a99f;" id="elula5peqxq" class="animable" data-darkreader-inline-fill=""></polygon><polygon points="417.62 145.62 414.34 158.97 407.73 158.95 368.46 158.84 324.18 158.71 282.37 214.75 249.8 214.65 217.23 214.56 175.74 158.29 131.46 158.16 92.19 158.05 85.59 158.03 82.38 144.66 113.21 144.75 116.55 144.76 180.56 144.94 212.71 156.37 287.13 156.59 319.44 145.33 383.45 145.52 395.06 145.55 417.62 145.62" style="fill: rgb(255, 199, 39); transform-origin: 250px 179.705px; --darkreader-inline-fill: #ffcb35;" id="elokmtcmoptxk" class="animable" data-darkreader-inline-fill=""></polygon><polygon points="395.63 133.95 395.59 145.55 383.98 145.52 384.02 133.92 392.32 133.94 395.63 133.95" style="fill: rgb(55, 71, 79); transform-origin: 389.805px 139.735px; --darkreader-inline-fill: #beb8b0;" id="elm6sd708ous9" class="animable" data-darkreader-inline-fill=""></polygon><polygon points="387.34 128.46 330.2 128.3 330.2 129.5 372.63 133.03 387.33 130.48 387.34 128.46" style="fill: rgb(166, 166, 166); transform-origin: 358.77px 130.665px; --darkreader-inline-fill: #b0a99f;" id="elfo6pyjnlrtt" class="animable" data-darkreader-inline-fill=""></polygon><polygon points="267.92 220.47 232.04 220.37 230.37 214.6 269.63 214.71 267.92 220.47" style="fill: rgb(255, 199, 39); transform-origin: 250px 217.535px; --darkreader-inline-fill: #ffcb35;" id="elj9wmzzjea7h" class="animable" data-darkreader-inline-fill=""></polygon><g id="elt95j9mcwv4"><polygon points="267.92 220.47 232.04 220.37 230.37 214.6 269.63 214.71 267.92 220.47" style="opacity: 0.1; transform-origin: 250px 217.535px;" class="animable"></polygon></g><polygon points="229.56 143.91 270.5 144.03 274.33 156.52 225.67 156.38 229.56 143.91" style="fill: rgb(255, 199, 39); transform-origin: 250px 150.215px; --darkreader-inline-fill: #ffcb35;" id="el93m93wy800p" class="animable" data-darkreader-inline-fill=""></polygon><g id="elj9c1a9x2okg"><polygon points="229.56 143.91 270.5 144.03 274.33 156.52 225.67 156.38 229.56 143.91" style="opacity: 0.1; transform-origin: 250px 150.215px;" class="animable"></polygon></g><g id="eln0p77veohlo"><polygon points="271.09 210.14 228.91 210.14 223.43 197.85 276.57 197.85 271.09 210.14" style="opacity: 0.1; transform-origin: 250px 203.995px;" class="animable"></polygon></g><g id="elnik8r532bpj"><polygon points="281.36 183.07 218.64 183.07 212.16 168.57 287.84 168.57 281.36 183.07" style="opacity: 0.1; transform-origin: 250px 175.82px;" class="animable"></polygon></g><g id="eluhgc5gdml6e"><path d="M412.45,151.36c-21.56,0-71.21,1.22-90.28.49-11.82,14.16-23.78,28.2-35.66,42.31-18.43.06-54.59.08-73,0-11.88-14.11-23.84-28.15-35.66-42.31l.58.28c-22.6-.09-68.26-.49-90.86-.77,22.88-.29,68.35-.69,91.21-.77,12,14,23.91,28,35.87,42l-.71-.33c18-.07,54.18-.05,72.16,0l-.71.32c11.88-13.92,23.69-27.9,35.63-41.77l.24-.27h.35c22.6.1,68.26.47,90.86.77Z" style="opacity: 0.2; transform-origin: 250.02px 172.376px;" class="animable"></path></g><polygon points="197.02 187.01 161.95 285.81 168.92 285.81 203.78 196.19 197.02 187.01" style="fill: rgb(69, 90, 100); transform-origin: 182.865px 236.41px; --darkreader-inline-fill: #b3aca2;" id="el8ubqygzb6tg" class="animable" data-darkreader-inline-fill=""></polygon><polygon points="214.07 210.14 186.63 238.09 193.27 221.93 209.91 204.49 214.07 210.14" style="fill: rgb(69, 90, 100); transform-origin: 200.35px 221.29px; --darkreader-inline-fill: #b3aca2;" id="elb2xi25ypfl" class="animable" data-darkreader-inline-fill=""></polygon><polygon points="302.98 187.01 338.05 285.81 331.08 285.81 296.21 196.19 302.98 187.01" style="fill: rgb(69, 90, 100); transform-origin: 317.13px 236.41px; --darkreader-inline-fill: #b3aca2;" id="ela6t6tl2fwmw" class="animable" data-darkreader-inline-fill=""></polygon><polygon points="285.93 210.14 313.37 238.09 306.73 221.93 290.1 204.49 285.93 210.14" style="fill: rgb(69, 90, 100); transform-origin: 299.65px 221.29px; --darkreader-inline-fill: #b3aca2;" id="el1w9nzz017ox" class="animable" data-darkreader-inline-fill=""></polygon></g><defs>     <filter id="active" height="200%">         <feMorphology in="SourceAlpha" result="DILATED" operator="dilate" radius="2"></feMorphology>                <feFlood flood-color="#32DFEC" flood-opacity="1" result="PINK"></feFlood>        <feComposite in="PINK" in2="DILATED" operator="in" result="OUTLINE"></feComposite>        <feMerge>            <feMergeNode in="OUTLINE"></feMergeNode>            <feMergeNode in="SourceGraphic"></feMergeNode>        </feMerge>    </filter>    <filter id="hover" height="200%">        <feMorphology in="SourceAlpha" result="DILATED" operator="dilate" radius="2"></feMorphology>                <feFlood flood-color="#ff0000" flood-opacity="0.5" result="PINK"></feFlood>        <feComposite in="PINK" in2="DILATED" operator="in" result="OUTLINE"></feComposite>        <feMerge>            <feMergeNode in="OUTLINE"></feMergeNode>            <feMergeNode in="SourceGraphic"></feMergeNode>        </feMerge>            <feColorMatrix type="matrix" values="0   0   0   0   0                0   1   0   0   0                0   0   0   0   0                0   0   0   1   0 "></feColorMatrix>    </filter></defs></svg>